<svg width="194" height="203" viewBox="0 0 194 203" fill="none" xmlns="http://www.w3.org/2000/svg">
<path d="M93.5041 202.185C78.138 200.368 59.932 193.984 48.4213 186.376C39.115 180.225 25.1174 167.271 18.872 159.029C11.8319 149.738 4.66539 134.055 2.19296 122.529C-0.769893 108.716 -0.726105 90.0404 2.2978 77.8083C5.19204 66.1008 12.3195 49.6206 17.8216 41.9137C22.7184 35.0549 35.6743 22.2882 42.4771 17.6184C70.3599 -1.52206 108.44 -5.4589 137.219 7.82353C141.22 9.66979 147.923 12.1213 152.114 13.2714C163.451 16.3816 173.688 21.4288 176.719 25.4025C180.032 29.7461 191.446 51.2292 191.446 53.1214C191.446 53.9126 188.477 60.6189 184.849 68.0242L178.252 81.4885L172.792 83.9882C163.898 88.0598 156.525 88.8565 141.266 87.3953C126.763 86.0064 124.101 86.296 117.674 89.9624C112.063 93.1624 108.823 98.3038 107.384 106.289C106.124 113.284 107.252 120.617 109.735 121.569C112.23 122.527 122.853 120.16 131.82 116.648C147.068 110.676 158.232 111.114 172.345 118.238L178.294 121.241L185.99 136.846L193.685 152.451L189.904 160.62C185.879 169.317 174.591 190.081 173.533 190.735C173.185 190.95 166.882 192.507 159.527 194.196C150.62 196.24 144.897 197.065 142.393 196.664C139.895 196.265 136.506 196.75 132.29 198.112C119.75 202.162 105.749 203.632 93.5041 202.185Z" fill="#44B2EA"/>
<path d="M93.5041 202.186C78.138 200.37 59.932 193.986 48.4213 186.378C39.115 180.227 25.1174 167.273 18.872 159.031C11.8319 149.74 4.66539 134.057 2.19296 122.531C-0.769893 108.718 -0.726105 90.0422 2.2978 77.8102C5.19204 66.1027 12.3195 49.6225 17.8216 41.9156C22.7184 35.0568 35.6743 22.2901 42.4771 17.6203C61.3374 4.67346 86.1683 -1.79582 108.446 0.433193C120.732 1.66248 127.78 3.52484 138.356 8.3366C147.672 12.5748 147.623 12.67 136.32 12.3282C127.166 12.0511 118.629 13.6742 112.229 16.9077C109.635 18.2184 106.892 19.2907 106.134 19.2907C105.376 19.2907 103.941 20.1908 102.946 21.2908C101.95 22.3908 100.643 23.304 100.041 23.3203C98.564 23.3599 86.66 34.699 82.2247 40.2908C78.236 45.3196 68.4459 63.1619 68.4459 65.4025C68.4459 66.571 70.4102 66.8425 78.6959 66.8193C84.3334 66.8042 94.5709 67.4018 101.446 68.1487C112.512 69.3508 114.806 69.3237 121.446 67.9124C132.205 65.6257 141.671 60.5439 150.043 52.559C156.535 46.3677 160.446 41.5051 160.446 39.6258C160.446 39.2215 159.941 39.396 159.323 40.0133C158.493 40.8435 157.537 40.8336 155.653 39.9751C153.645 39.0603 153.013 39.0897 152.672 40.1135C152.327 41.1462 151.901 41.1136 150.592 39.9547C149.143 38.6715 142.88 37.4345 136.953 37.2611C133.313 37.1545 124.446 29.7385 124.446 26.7998C124.446 25.548 120.285 22.2756 118.731 22.3059C118.299 22.3135 118.621 22.7574 119.446 23.2906C120.544 24.0005 119.808 24.2641 116.696 24.2753C114.358 24.2829 112.446 23.894 112.446 23.4092C112.446 22.9245 113.844 21.1609 115.553 19.4901C118.344 16.7616 119.489 16.3898 126.803 15.8387C140.535 14.8039 151.13 15.7185 159.373 18.6507C163.458 20.1036 167.884 22.003 169.21 22.8714C172.069 24.745 173.306 24.0359 171.338 21.651C170.071 20.1153 170.145 20.0693 172.155 21.1404C173.37 21.7878 175.476 23.7741 176.834 25.5545C180.06 29.7845 191.446 51.2659 191.446 53.1231C191.446 53.9143 188.477 60.6207 184.849 68.026L178.252 81.4902L172.792 83.9899C163.898 88.0615 156.525 88.8583 141.266 87.397C126.763 86.0081 124.101 86.2977 117.674 89.9641C112.063 93.1641 108.823 98.3054 107.384 106.291C106.124 113.286 107.252 120.618 109.735 121.571C112.23 122.529 122.853 120.161 131.82 116.649C147.068 110.677 158.232 111.115 172.345 118.24L178.294 121.243L185.988 136.844C192.463 149.974 193.516 152.79 192.632 154.618C192.054 155.813 191.551 156.239 191.514 155.566C191.468 154.747 190.368 154.518 188.196 154.875C183.032 155.725 176.036 157.537 174.946 158.308C174.396 158.697 172.623 159.332 171.007 159.719C167.506 160.558 163.339 163.298 158.113 168.197C152.518 173.444 151.158 176.563 151.952 182.336C152.377 185.425 152.145 188.48 151.311 190.787C150.239 193.752 150.238 194.544 151.306 195.204C153.225 196.39 147.057 197.412 142.438 196.673C139.888 196.265 136.542 196.74 132.29 198.114C119.75 202.163 105.749 203.633 93.5041 202.186ZM41.3718 162.911C45.66 155.972 57.9319 147.86 67.1959 145.84C68.9834 145.451 70.4459 144.93 70.4459 144.683C70.4459 144.436 69.0959 141.559 67.4459 138.291C65.7959 135.022 64.4459 131.461 64.4459 130.378C64.4459 129.295 64.072 128.178 63.6149 127.895C62.7544 127.363 60.882 117.52 59.9809 108.791C59.3216 102.404 61.7953 80.1606 63.8134 74.3298C64.6626 71.8763 65.1611 69.6726 64.9214 69.4328C64.6815 69.1932 59.7375 69.9266 53.9344 71.063C39.9771 73.7962 30.7356 78.3742 23.6699 86.0553C16.5117 93.8369 14.9933 98.9777 15.0353 115.291C15.0836 134.105 18.1208 144.506 28.9106 162.809C37.0219 176.568 36.6206 176.2 37.9244 171.065C38.5352 168.66 40.0865 164.99 41.3718 162.911ZM19.0762 118.041C17.6557 112.74 18.3523 109.447 21.1959 108.019C23.6713 106.776 24.425 106.875 28.7429 109.005C31.3812 110.307 33.8053 112.064 34.1296 112.909C35.0888 115.408 32.0034 117.479 26.8356 117.805C24.1797 117.972 21.843 118.6 21.6429 119.2C21.0359 121.021 19.715 120.425 19.0762 118.041ZM18.2481 106.741C17.2723 105.097 18.6317 99.1566 20.1142 98.5877C22.0383 97.8494 22.9593 98.954 21.7227 100.517C21.1682 101.217 20.2864 103.119 19.7633 104.741C19.2401 106.364 18.5583 107.264 18.2481 106.741ZM154.626 189.041C154.802 187.803 155.396 186.791 155.946 186.791C156.496 186.791 157.09 187.803 157.265 189.041C157.485 190.589 157.074 191.291 155.946 191.291C154.818 191.291 154.406 190.589 154.626 189.041ZM159.446 189.907C159.446 189.026 160.796 187.103 162.446 185.633C164.096 184.163 165.478 182.022 165.516 180.875C165.576 179.109 165.69 179.053 166.266 180.504C167.149 182.728 169.016 181.553 170.405 177.899C171.175 175.872 171.179 174.675 170.419 173.758C169.733 172.932 169.701 172.251 170.328 171.863C170.867 171.531 171.595 171.723 171.946 172.291C172.825 173.713 174.187 172.692 175.946 169.291C177.27 166.73 177.262 166.249 175.867 164.855C174.516 163.504 174.506 163.291 175.791 163.291C176.61 163.291 177.429 162.909 177.613 162.443C178.072 161.273 186.446 160.054 186.446 161.157C186.446 161.646 185.771 162.606 184.946 163.291C184.121 163.975 183.443 165.268 183.44 166.163C183.433 167.881 182.97 168.862 176.964 179.879C172.036 188.921 171.989 188.97 167.66 189.754C165.617 190.124 162.933 190.67 161.696 190.967C160.075 191.357 159.446 191.06 159.446 189.907ZM172.446 190.913C172.446 190.706 173.233 189.918 174.196 189.163C175.782 187.919 175.817 187.955 174.573 189.541C173.267 191.206 172.446 191.736 172.446 190.913ZM96.9459 28.2908C97.2859 27.7408 97.7624 27.2907 98.0049 27.2907C98.2475 27.2907 98.4459 27.7408 98.4459 28.2908C98.4459 28.8407 97.9694 29.2908 97.3869 29.2908C96.8044 29.2908 96.606 28.8407 96.9459 28.2908Z" fill="#9B98A9"/>
<path d="M89.4459 200.596C81.8118 199.308 66.8807 194.623 59.6399 191.244C49.3502 186.442 38.581 178.677 37.7788 175.481C35.4761 166.306 49.037 151.476 63.9459 146.866C67.2459 145.845 70.0879 144.894 70.2614 144.751C70.4349 144.609 69.1974 141.76 67.5114 138.42C65.8254 135.08 64.4459 131.461 64.4459 130.378C64.4459 129.295 64.072 128.178 63.6149 127.895C62.7545 127.363 60.8821 117.52 59.981 108.791C59.3216 102.403 61.7953 80.1605 63.8134 74.3297C64.6626 71.8762 65.1612 69.6725 64.9214 69.4327C63.6442 68.1555 42.7135 73.4628 36.1647 76.7244C24.1046 82.731 15.4459 94.1312 15.4459 104.004C15.4459 105.296 14.7709 106.612 13.9459 106.929C11.9586 107.692 11.9474 117.667 13.9202 129.831C16.2876 144.426 20.8379 154.999 28.5405 163.801C34.6926 170.832 34.8496 172.56 28.8848 167.59C16.8806 157.59 6.51601 138.87 2.73329 120.357C0.535064 109.598 0.602736 89.8325 2.87219 79.7907C7.23341 60.493 14.8668 46.0841 27.946 32.4609C39.0473 20.8979 45.5661 16.0404 57.7403 10.2595C71.9754 3.49994 80.4109 1.78909 99.446 1.80084C116.952 1.81218 123.713 2.94892 133.336 7.50208L137.946 9.68303L131.446 10.2856C127.871 10.617 123.596 11.6038 121.946 12.4785C116.305 15.469 107.403 19.2906 106.079 19.2906C105.351 19.2906 103.941 20.1907 102.946 21.2906C101.951 22.3906 100.643 23.3039 100.041 23.3201C98.5641 23.3598 86.6601 34.6989 82.2248 40.2906C78.2361 45.3195 68.446 63.1618 68.446 65.4025C68.446 66.5709 70.4103 66.8424 78.696 66.8193C84.3335 66.8041 94.571 67.4017 101.446 68.1486C112.512 69.3507 114.806 69.3236 121.446 67.9124C132.205 65.6257 141.671 60.5438 150.043 52.5589C156.535 46.3676 160.446 41.505 160.446 39.6257C160.446 39.2214 159.941 39.3959 159.323 40.0132C158.493 40.8434 157.537 40.8335 155.653 39.975C153.645 39.0602 153.013 39.0896 152.672 40.1134C152.327 41.1461 151.901 41.1135 150.592 39.9546C149.143 38.6714 142.88 37.4344 136.954 37.261C133.313 37.1544 124.446 29.7384 124.446 26.7997C124.446 25.5479 120.285 22.2755 118.731 22.3058C118.299 22.3134 118.621 22.7573 119.446 23.2905C120.545 24.0004 119.808 24.264 116.696 24.2752C114.358 24.2827 112.446 23.8939 112.446 23.4091C112.446 22.9244 113.844 21.1608 115.553 19.49C118.344 16.7614 119.489 16.3897 126.803 15.8385C140.535 14.8038 151.13 15.7183 159.373 18.6506C163.458 20.1035 167.858 21.9856 169.151 22.8329C170.444 23.6803 171.913 24.1199 172.415 23.8099C173.965 22.8517 176.682 26.6587 183.809 39.7783L190.672 52.4111L189.024 56.6008C188.118 58.9052 185.03 65.2905 182.162 70.7905C176.322 81.9867 175.068 82.9826 163.074 85.9424C157.023 87.4356 154.851 87.4708 141.901 86.2863C126.05 84.8365 122.192 85.3525 115.652 89.7967C106.915 95.7331 103.103 109.904 107.351 120.653C108.463 123.468 108.58 123.505 114.214 122.824C117.367 122.444 123.096 121.004 126.946 119.626C144.315 113.406 145.673 113.093 152.661 113.707C159.522 114.311 170.388 117.712 174.901 120.669C176.495 121.714 180.203 127.881 185.02 137.503C192.093 151.631 192.498 152.779 190.843 153.989C189.864 154.705 187.867 155.29 186.404 155.29C183.833 155.29 179.082 156.543 174.946 158.31C173.846 158.78 171.821 159.48 170.446 159.865C164.712 161.47 153.508 171.369 151.981 176.18C151.613 177.341 150.84 178.29 150.265 178.29C149.59 178.29 149.461 179.908 149.903 182.853C150.353 185.856 150.179 187.907 149.394 188.853C148.501 189.929 148.487 190.635 149.336 191.658C151.262 193.978 148.235 195.531 143.244 194.783C140.019 194.299 137.544 194.675 133.527 196.258C124.625 199.767 115.108 201.3 103.131 201.154C96.9791 201.079 90.8209 200.828 89.4459 200.596ZM154.626 189.041C154.802 187.803 155.396 186.791 155.946 186.791C156.496 186.791 157.09 187.803 157.266 189.041C157.485 190.589 157.074 191.291 155.946 191.291C154.818 191.291 154.407 190.589 154.626 189.041ZM159.446 189.907C159.446 189.026 160.796 187.103 162.446 185.633C164.096 184.163 165.478 182.022 165.516 180.875C165.576 179.109 165.69 179.053 166.266 180.504C167.149 182.728 169.016 181.553 170.405 177.899C171.175 175.872 171.179 174.675 170.419 173.758C169.733 172.932 169.701 172.251 170.328 171.863C170.867 171.531 171.595 171.723 171.946 172.291C172.825 173.713 174.187 172.692 175.946 169.291C177.27 166.73 177.262 166.249 175.867 164.855C174.516 163.504 174.506 163.291 175.791 163.291C176.61 163.291 177.429 162.909 177.613 162.443C178.072 161.273 186.446 160.054 186.446 161.157C186.446 161.646 185.771 162.606 184.946 163.291C184.121 163.975 183.443 165.268 183.44 166.163C183.433 167.881 182.97 168.862 176.965 179.879C172.036 188.921 171.989 188.97 167.66 189.754C165.617 190.125 162.933 190.67 161.696 190.967C160.075 191.357 159.446 191.06 159.446 189.907ZM19.0762 118.041C17.6557 112.74 18.3523 109.447 21.1959 108.019C23.6713 106.776 24.425 106.875 28.7429 109.005C31.3813 110.307 33.8053 112.064 34.1297 112.909C35.0888 115.408 32.0034 117.479 26.8356 117.805C24.1797 117.972 21.843 118.599 21.643 119.2C21.0359 121.021 19.7151 120.424 19.0762 118.041ZM18.2481 106.741C17.2723 105.096 18.6317 99.1566 20.1142 98.5877C22.0383 97.8494 22.9593 98.9539 21.7227 100.516C21.1682 101.217 20.2865 103.118 19.7633 104.741C19.2402 106.364 18.5583 107.264 18.2481 106.741ZM96.9459 28.2906C97.2859 27.7406 97.7624 27.2906 98.005 27.2906C98.2475 27.2906 98.446 27.7406 98.446 28.2906C98.446 28.8406 97.9694 29.2907 97.3869 29.2907C96.8045 29.2907 96.606 28.8406 96.9459 28.2906Z" fill="#3BB0EB"/>
<path d="M89.446 200.596C81.8118 199.308 66.8807 194.623 59.6399 191.244C51.2129 187.311 38.9475 179.04 38.0415 176.679C37.0781 174.168 41.594 163.404 45.4469 159.027C49.5095 154.412 57.9964 149.355 65.3001 147.198C67.6948 146.49 69.8637 145.366 70.1199 144.698C70.376 144.031 69.6996 141.748 68.6168 139.626C60.7464 124.198 58.6571 95.9186 63.9157 75.9918C64.7574 72.8025 65.446 69.99 65.446 69.7419C65.446 68.6251 57.0645 69.4701 49.8559 71.3135C28.9016 76.6724 17.8501 86.5138 15.8164 101.626C15.4585 104.285 14.5538 106.696 13.8059 106.983C11.9684 107.688 12.0207 118.119 13.9203 129.831C16.2876 144.426 20.8379 154.999 28.5406 163.801C34.6926 170.832 34.8496 172.56 28.8848 167.59C16.8806 157.59 6.51601 138.87 2.73329 120.357C0.535064 109.598 0.602736 89.8325 2.87219 79.7907C7.23341 60.493 14.8668 46.0841 27.946 32.4609C39.0473 20.8979 45.5661 16.0404 57.7403 10.2595C71.9754 3.49994 80.4109 1.78909 99.446 1.80084C116.952 1.81218 123.713 2.94892 133.336 7.50208L137.946 9.68303L131.446 10.2452C127.871 10.5544 123.821 11.547 122.446 12.4509C121.071 13.3548 118.371 14.4039 116.446 14.7822C114.521 15.1606 109.749 17.0261 105.842 18.9277C98.2093 22.642 86.6928 33.2282 79.8817 42.7906C76.1105 48.0851 68.446 63.4142 68.446 65.662C68.446 66.6858 72.3293 67.1898 85.196 67.8362C112.141 69.1897 122.004 68.8636 128.903 66.3909C142.501 61.5174 154.581 50.785 165.882 33.5369C170.046 27.1812 173.021 23.5741 173.839 23.888C175.127 24.3822 179.686 31.944 187.131 45.9338L190.932 53.077L183.939 66.9338C176.113 82.4409 175.686 82.8301 163.074 85.9425C157.023 87.4357 154.851 87.471 141.901 86.2865C126.05 84.8367 122.192 85.3527 115.652 89.7969C106.915 95.7332 103.103 109.904 107.351 120.654C108.463 123.468 108.58 123.505 114.214 122.824C117.367 122.444 123.096 121.004 126.946 119.626C144.315 113.406 145.673 113.093 152.661 113.708C159.522 114.311 170.388 117.712 174.901 120.669C177.557 122.409 193.068 152.002 191.924 153.146C191.584 153.486 188.164 154.294 184.324 154.941C170.719 157.233 156.028 166.642 152.408 175.383C151.745 176.982 150.757 178.291 150.211 178.291C149.6 178.291 149.482 180.042 149.903 182.853C150.353 185.856 150.179 187.907 149.394 188.853C148.501 189.929 148.487 190.635 149.336 191.658C151.262 193.978 148.235 195.531 143.244 194.783C140.019 194.299 137.544 194.675 133.527 196.259C124.625 199.767 115.108 201.3 103.131 201.154C96.9791 201.08 90.821 200.828 89.446 200.596Z" fill="#E44E4B"/>
<path d="M89.4458 200.597C81.8116 199.309 66.8806 194.624 59.6397 191.245C51.2128 187.312 38.9474 179.041 38.0413 176.679C37.0779 174.169 41.5939 163.405 45.4467 159.028C49.5093 154.412 57.9962 149.355 65.2999 147.198C67.6947 146.491 69.8636 145.366 70.1197 144.699C70.3758 144.031 69.6994 141.749 68.6166 139.626C60.7462 124.199 58.657 95.9191 63.9155 75.9924C64.7572 72.803 65.4458 69.9906 65.4458 69.7424C65.4458 68.6256 57.0643 69.4706 49.8558 71.3141C28.9347 76.6644 17.8497 86.5176 15.8246 101.564C14.9221 108.268 13.4458 108.485 13.4458 101.912C13.4458 91.3112 18.6949 74.0405 25.9772 60.6809C28.496 56.0602 30.2803 51.8322 29.9423 51.2853C29.6043 50.7385 25.9793 50.2911 21.8868 50.2911C17.7942 50.2911 14.4458 49.8905 14.4458 49.401C14.4458 48.197 22.9406 36.7254 24.6123 35.672C25.3457 35.2098 30.8958 34.8226 36.9458 34.8114L47.9458 34.7924L57.4458 28.8995C69.4167 21.4739 77.4721 17.839 87.802 15.2015C94.7561 13.4259 113.134 11.3209 121.446 11.3479C123.773 11.3555 123.821 11.4508 122.143 12.7228C121.152 13.4745 118.677 14.3903 116.643 14.7581C114.61 15.1258 109.749 16.9926 105.841 18.9067C98.2111 22.6445 86.6665 33.2667 79.8815 42.7925C76.1103 48.0869 68.4458 63.416 68.4458 65.6639C68.4458 66.6876 72.3291 67.1916 85.1958 67.8379C112.14 69.1915 122.004 68.8654 128.903 66.3928C142.501 61.5192 154.581 50.7868 165.882 33.5387C170.046 27.1831 173.021 23.5759 173.839 23.8899C175.127 24.3841 179.686 31.9457 187.131 45.9356L190.932 53.0788L183.939 66.9356C176.113 82.4428 175.686 82.8319 163.073 85.9443C157.023 87.4375 154.851 87.4728 141.901 86.2883C126.05 84.8385 122.192 85.3544 115.651 89.7987C109.492 93.9838 105.446 102.649 105.446 111.652C105.446 113.562 105.038 115.276 104.54 115.459C102.454 116.226 73.4458 144.694 73.4458 145.974C73.4458 150.058 82.3194 163.123 90.9676 171.771C101.743 182.546 113.465 189.628 126.51 193.243C130.481 194.343 133.921 195.434 134.153 195.666C134.716 196.229 126.261 198.883 119.647 200.221C114.594 201.242 94.7341 201.49 89.4458 200.597ZM143.446 194.406C143.446 193.919 144.53 192.811 145.854 191.943C147.801 190.668 148.467 190.612 149.33 191.652C150.093 192.571 150.062 193.275 149.222 194.115C147.852 195.484 143.446 195.707 143.446 194.406ZM148.967 173.541C147.843 164.661 144.378 144.81 143.077 139.791L141.78 134.791L134.547 135.125C124.413 135.593 118.147 133.878 113.362 129.326C111.208 127.277 109.446 125.147 109.446 124.593C109.446 124.038 112.536 123.074 116.313 122.45C120.09 121.827 127.403 119.637 132.563 117.585C140.674 114.36 143.031 113.856 149.946 113.87C155.53 113.881 159.909 114.552 164.446 116.091C175.97 120.002 176.569 120.624 184.953 137.37C189.127 145.708 192.263 152.807 191.923 153.147C191.583 153.487 188.164 154.295 184.324 154.942C170.719 157.234 156.028 166.643 152.408 175.383C150.686 179.54 149.657 178.988 148.967 173.541ZM29.7394 168.026C28.0511 166.247 25.8856 163.216 24.9273 161.291C23.2933 158.009 23.4573 158.096 27.5654 162.688C29.9746 165.38 32.3246 168.227 32.7875 169.013C34.4056 171.759 32.7837 171.234 29.7394 168.026Z" fill="#606D8E"/>
<path d="M88.6808 199.794C72.4906 196.859 56.9447 190.677 45.8556 182.764C40.5692 178.992 39.4459 177.696 39.4459 175.367C39.4459 171.561 41.8217 165.07 44.6384 161.179C47.792 156.823 57.2148 150.864 65.1004 148.24C72.5541 145.76 72.4651 146.156 67.9685 135.47C66.5054 131.993 64.593 125.918 63.7187 121.97C61.5558 112.204 61.6871 90.3421 63.969 80.2916C64.9055 76.1666 65.8984 71.7791 66.1754 70.5416C66.6392 68.4695 66.3267 68.2916 62.2224 68.2916C59.7713 68.2916 54.2063 69.2019 49.8559 70.3145C31.0609 75.1211 20.1167 83.4575 15.4012 96.5594C13.9576 100.57 13.5096 101.164 13.482 99.1036C13.3793 91.4554 19.5811 72.4155 26.0263 60.5916C28.5913 55.8861 30.2733 51.7191 29.7992 51.2449C29.3286 50.7743 25.6344 50.2548 21.5898 50.0905L14.2361 49.7915L19.6099 42.2933L24.9838 34.7952L36.4648 34.7934L47.9459 34.7915L57.4459 28.8985C75.3759 17.7765 87.5006 13.7656 107.864 12.2199C114.43 11.7215 119.945 11.4571 120.12 11.6322C120.295 11.8072 116.636 13.3948 111.989 15.1599C95.5731 21.3958 81.4997 35.4075 71.8918 55.0821C68.8592 61.2919 66.6039 66.738 66.8799 67.1846C67.4264 68.0689 95.9042 69.6437 111.946 69.6767C133.636 69.7213 149.365 59.7596 165.445 35.7933C169.32 30.0173 173.06 25.2915 173.757 25.2915C175.746 25.2915 189.446 49.619 189.446 53.1512C189.446 55.7411 178.138 78.4164 175.83 80.4556C174.794 81.3708 171.021 83.1124 167.446 84.3257C161.434 86.3661 159.932 86.472 147.446 85.7365C127.951 84.5882 124.096 84.7981 118.953 87.288C110.48 91.39 105.446 99.6795 105.446 109.532V114.041L89.4459 129.322C80.6459 137.727 73.4459 145.227 73.4459 145.988C73.4459 148.104 77.2778 155.149 81.6413 161.056C93.0947 176.56 109.859 188.713 125.614 192.934C129.097 193.867 132.343 194.974 132.829 195.394C133.965 196.376 124.946 198.973 115.946 200.255C106.734 201.567 97.6112 201.413 88.6808 199.794ZM144.01 194.395C143.669 193.843 144.343 192.882 145.507 192.259C147.312 191.293 147.575 191.384 147.285 192.876C146.889 194.922 144.904 195.842 144.01 194.395ZM149.127 174.292C148.858 172.917 147.909 166.842 147.017 160.792C146.125 154.742 144.6 146.417 143.628 142.292L141.862 134.792L134.588 135.126C124.412 135.593 118.151 133.883 113.362 129.327C111.208 127.278 109.446 125.144 109.446 124.585C109.446 124.027 112.033 123.333 115.196 123.045C118.358 122.756 125.446 120.781 130.946 118.656C140.185 115.086 141.707 114.793 150.946 114.81C160.037 114.825 161.652 115.132 168.718 118.163L176.491 121.497L183.968 136.599C188.081 144.906 191.446 151.998 191.446 152.359C191.446 152.721 189.061 153.297 186.145 153.639C174.464 155.012 161.453 161.529 155.769 168.853C154.216 170.854 152.196 173.459 151.28 174.642L149.615 176.792L149.127 174.292Z" fill="#55516F"/>
<path d="M87.0675 198.735C71.0375 195.55 50.7309 186.804 43.1699 179.828C38.8681 175.859 38.861 174.547 43.0932 165.582C45.6843 160.093 50.0662 156.015 57.3273 152.335C62.482 149.723 70.4747 147.189 71.5211 147.836C71.9247 148.086 73.5979 150.652 75.2392 153.54C79.4001 160.859 90.3147 173.338 97.7211 179.242C105.293 185.278 113.111 189.58 123.187 193.253L130.784 196.023L127.365 197.104C116.696 200.476 99.3625 201.178 87.0675 198.735ZM149.987 170.95C149.739 169.762 149.026 165.415 148.403 161.29C146.713 150.101 144.498 139.128 143.327 136.144C142.295 133.512 142.239 133.499 132.118 133.63C123.35 133.743 121.364 133.452 117.729 131.522C114.185 129.64 111.446 126.79 111.446 124.984C111.446 124.744 113.752 124.241 116.57 123.867C119.389 123.494 126.251 121.469 131.82 119.368C137.389 117.268 143.599 115.252 145.621 114.888C151.036 113.914 161.607 115.922 169.399 119.406L176.246 122.468L183.406 136.985C187.345 144.969 190.427 151.623 190.256 151.772C190.086 151.92 186.517 152.732 182.326 153.575C171.361 155.78 163.988 159.607 156.692 166.878C151.106 172.446 150.391 172.88 149.987 170.95ZM69.9944 138.386C65.0361 128.601 63.0214 118.174 63.0196 102.29C63.0182 89.0464 63.6445 83.7979 66.5016 73.1091C67.4436 69.5853 67.7108 69.4005 72.7798 68.7671C75.7793 68.3922 85.1361 68.8321 94.3659 69.7815C107.189 71.1004 112.318 71.2338 118.455 70.4078C138.07 67.768 151.931 57.6569 166.94 35.0397C170.133 30.2272 173.134 26.2897 173.608 26.2897C174.81 26.2897 180.394 35.227 185.322 45.0362L189.465 53.2828L183.347 65.5362C179.983 72.2756 176.551 78.5579 175.722 79.4968C173.488 82.0246 162.54 85.345 155.823 85.5318C152.59 85.6217 144.094 85.3152 136.942 84.8508C124.123 84.0185 123.865 84.0435 118.804 86.6081C109.755 91.1934 104.446 99.6567 104.446 109.495C104.446 112.443 102.741 114.516 89.1841 128.052C80.7901 136.433 73.5977 143.29 73.2009 143.29C72.8041 143.29 71.3612 141.083 69.9944 138.386ZM16.4458 88.3874C16.4458 84.801 23.2786 67.1317 27.4552 59.9177C29.6895 56.0585 31.3842 52.2009 31.2211 51.3453C30.9918 50.1421 29.2843 49.7231 23.6852 49.4958C19.7035 49.3341 16.4458 48.9558 16.4458 48.6548C16.4458 47.4241 24.8185 36.2791 25.8407 36.1493C26.4485 36.0722 31.4458 36.1077 36.9458 36.2286L46.9458 36.4482L55.4458 31.2205C67.0296 24.096 80.5542 17.8752 88.8114 15.8735C96.1536 14.0936 111.446 12.5758 111.446 13.627C111.446 13.9754 108.833 15.5796 105.64 17.1914C91.976 24.0891 79.4807 37.9344 70.7003 55.9063L65.269 67.0231L59.2897 67.6481C44.5621 69.1875 30.0233 75.7382 21.9277 84.4825C17.7223 89.0248 16.4458 89.9342 16.4458 88.3874Z" fill="#231C4C"/>
</svg>
